# xmcd
#
# Track frame offsets:
#	150
#	13600
#	27547
#	43770
#	63622
#	82625
#	99612
#	119787
#	134357
#	150642
#	168885
#	187137
#	203675
#	220005
#	236832
#
# Disc length: 3426 seconds
#
# Revision: 1
# Processed by: cddbd v1.5.1PL0 Copyright (c) Steve Scherf et al.
# Submitted via: audiograbber 1.82.02
#
DISCID=d10d600f
DTITLE=Various Artist - Music Maestro 6087
DYEAR=1900
DGENRE=Karaoke
TTITLE0=Tim McGraw - Refried dreams
TTITLE1=Pam Tillis - Iwas blown away
TTITLE2=Randy Travis  - The box
TTITLE3=Tracy Byrd - The keeper of the stars
TTITLE4=John Michael Montgomery - If you've got love
TTITLE5=Joe Diffie - So help me girl
TTITLE6=Vince Gill - Which bridge to cross ( Which bridge to burn )
TTITLE7=Brooks and Dunn - Little miss honky tonk
TTITLE8=Tanya Tucker - Between the two of them
TTITLE9=Sawyer Brown - I don't believe in goodbye
TTITLE10=Blackhawk - Down in flames
TTITLE11=Mary-Chapin Carpenter - House of cards
TTITLE12=Brooks and Dunn - I'll never forgive my heart
TTITLE13=George Strait - You can't make a heart love somebody
TTITLE14=Travis Tritt - Between an old memory and me
EXTD=
EXTT0=
EXTT1=
EXTT2=
EXTT3=
EXTT4=
EXTT5=
EXTT6=
EXTT7=
EXTT8=
EXTT9=
EXTT10=
EXTT11=
EXTT12=
EXTT13=
EXTT14=
PLAYORDER=
